<svg xmlns="http://www.w3.org/2000/svg" version="1.0" width="500.000000pt" height="500.000000pt" viewBox="0 0 500.000000 500.000000" preserveAspectRatio="xMidYMid meet">

<g transform="translate(0.000000,500.000000) scale(0.100000,-0.100000)" fill="#fffaf5" stroke="none">
<path d="M1352 3837 c-57 -21 -103 -66 -136 -136 -29 -62 -31 -73 -31 -181 0 -124 14 -173 71 -247 49 -64 161 -98 240 -73 126 40 191 166 181 349 -5 108 -25 165 -78 226 -60 68 -160 93 -247 62z m51 -39 c12 -6 28 -18 35 -27 28 -34 65 -130 83 -216 32 -155 22 -280 -26 -311 -35 -23 -61 -4 -96 69 -75 161 -99 426 -43 481 19 19 19 19 47 4z" fill="#fffaf5"/>
<path d="M700 3821 c13 -25 14 -560 0 -595 l-10 -26 168 0 c184 0 233 12 267 64 27 40 30 105 7 146 -29 52 -87 77 -220 93 -104 14 -145 27 -130 43 4 3 38 -1 77 -10 89 -20 130 -20 182 0 123 50 134 220 19 281 -40 21 -56 23 -207 23 -159 0 -163 -1 -153 -19z m261 -121 c24 -13 25 -52 1 -73 -51 -46 -174 -64 -205 -29 -31 34 3 81 72 102 38 12 109 12 132 0z m-126 -226 c130 -42 170 -76 145 -124 -13 -24 -58 -27 -99 -5 -34 17 -131 123 -131 142 0 16 -8 17 85 -13z" fill="#fffaf5"/>
<path d="M1719 3822 c15 -27 15 -576 1 -603 -10 -18 -6 -19 146 -19 91 0 173 5 196 12 84 25 126 122 115 263 -11 144 -71 270 -156 330 -42 29 -46 30 -178 34 -133 3 -135 3 -124 -17z m269 -59 c14 -32 17 -71 17 -238 0 -214 -9 -265 -48 -286 -17 -10 -24 -8 -39 11 -16 20 -18 45 -18 260 0 131 4 250 10 264 15 42 57 35 78 -11z" fill="#fffaf5"/>
<path d="M2353 3818 c13 -48 -90 -495 -134 -580 l-19 -38 115 0 c111 0 115 1 131 25 18 28 13 93 -12 154 -20 48 -19 51 30 51 39 0 44 -3 49 -27 14 -72 18 -150 8 -175 l-11 -28 130 0 129 0 -18 33 c-43 73 -148 522 -137 579 l6 28 -136 0 c-136 0 -136 0 -131 -22z m91 -145 c14 -30 56 -182 56 -205 0 -5 -22 -8 -49 -8 -47 0 -49 1 -64 38 -22 56 -29 126 -17 171 16 61 46 63 74 4z" fill="#fffaf5"/>
<path d="M1905 2890 c-2 -3 -3 -21 -3 -41 0 -93 -100 -497 -138 -556 l-14 -23 113 0 c75 0 117 4 125 12 18 18 14 101 -7 158 l-19 50 43 0 c24 0 47 -4 50 -10 3 -5 9 -48 12 -95 4 -61 2 -89 -7 -100 -11 -13 2 -15 114 -15 120 0 138 4 117 26 -32 32 -148 520 -136 573 l5 26 -126 0 c-69 0 -127 -2 -129 -5z m91 -180 c12 -30 29 -86 37 -123 l15 -68 -51 3 -51 3 -19 60 c-29 94 -12 191 32 183 9 -2 26 -28 37 -58z" fill="#fffaf5"/>
<path d="M2480 2884 c-111 -48 -173 -200 -150 -367 18 -123 59 -190 142 -231 28 -14 67 -26 86 -26 30 0 33 -2 21 -16 -9 -11 -27 -15 -63 -13 -58 3 -73 -19 -23 -32 16 -4 60 -27 98 -50 77 -46 140 -59 189 -39 44 18 54 43 35 84 -16 33 -51 76 -62 76 -3 0 -20 -16 -37 -36 -27 -31 -39 -37 -84 -42 -64 -6 -67 7 -9 41 57 34 119 102 153 169 23 44 28 69 32 154 7 163 -39 271 -138 322 -53 26 -137 29 -190 6z m86 -49 c102 -102 147 -481 63 -526 -75 -40 -164 197 -157 417 3 106 14 134 50 134 10 0 30 -11 44 -25z" fill="#fffaf5"/>
<path d="M3145 2892 c-2 -2 1 -18 6 -35 12 -41 11 -320 -1 -372 -13 -55 -49 -85 -106 -85 -87 0 -144 42 -144 108 0 42 20 80 86 164 64 83 91 148 78 186 -9 27 -11 27 -112 30 l-102 3 10 -26 c6 -15 10 -115 10 -224 0 -232 9 -271 72 -326 108 -92 289 -60 349 61 23 46 24 62 29 274 3 124 8 230 12 235 5 9 -178 16 -187 7z" fill="#fffaf5"/>
<path d="M3505 2882 c-46 -30 -82 -72 -107 -127 -20 -44 -23 -66 -23 -175 0 -111 3 -130 23 -171 67 -136 207 -185 326 -115 67 39 123 153 96 196 -7 11 -17 5 -53 -33 -41 -44 -47 -47 -94 -47 -69 0 -136 44 -180 120 -30 50 -44 110 -25 110 12 0 53 -29 99 -72 59 -52 121 -55 166 -7 33 36 40 107 10 94 -40 -16 -53 -15 -113 9 -71 29 -113 32 -150 11 -38 -22 -40 -19 -40 40 0 42 5 60 21 76 23 23 33 21 131 -22 88 -40 131 -46 163 -25 29 19 62 80 67 122 3 26 0 29 -22 25 -38 -5 -107 -4 -190 4 -64 5 -79 4 -105 -13z" fill="#fffaf5"/>
<path d="M3855 2890 c-2 -3 0 -12 6 -20 12 -20 12 -542 -1 -574 l-10 -26 193 0 c105 0 202 3 215 6 29 8 40 50 21 83 -8 14 -38 39 -67 55 -83 48 -80 82 9 111 85 28 86 69 4 106 -60 28 -101 24 -136 -10 -49 -49 -40 -99 32 -178 29 -32 39 -51 39 -77 0 -40 -17 -56 -67 -63 -89 -11 -188 121 -168 226 10 51 29 85 106 185 53 68 69 96 69 121 0 18 -6 37 -13 43 -13 11 -226 21 -232 12z" fill="#fffaf5"/>
<path d="M1288 2600 c2 -193 -1 -296 -8 -310 -10 -19 -8 -20 83 -20 78 0 97 3 110 18 41 45 11 115 -71 171 -66 45 -86 66 -77 80 16 27 169 -88 201 -152 9 -16 14 -47 12 -70 l-3 -42 70 -3 c106 -5 115 -1 115 55 0 41 -5 50 -39 84 -25 23 -72 50 -123 71 -141 56 -203 91 -203 112 0 32 21 29 61 -10 59 -55 89 -67 154 -62 98 7 150 66 158 178 5 77 -26 137 -88 168 -40 20 -58 22 -200 22 l-155 0 3 -290z m353 150 c44 -12 63 -32 54 -58 -10 -34 -61 -47 -185 -47 -118 0 -173 12 -184 42 -8 20 11 52 37 63 31 12 234 12 278 0z" fill="#fffaf5"/>
<path d="M755 1962 c-2 -2 1 -18 6 -35 12 -44 12 -459 -1 -492 -6 -15 -19 -29 -30 -32 -28 -7 -25 -28 6 -52 55 -43 143 -17 174 51 18 39 20 67 20 281 0 139 4 246 10 257 9 17 4 19 -86 22 -53 2 -97 2 -99 0z" fill="#fffaf5"/>
<path d="M1535 1961 c-3 -2 2 -16 11 -32 42 -83 141 -506 130 -561 l-5 -28 132 0 132 0 1 68 c2 107 99 495 135 538 10 12 -7 14 -103 14 -75 0 -118 -4 -126 -12 -23 -23 -13 -96 29 -205 46 -120 59 -211 37 -253 -8 -14 -20 -25 -28 -25 -41 0 -112 254 -114 407 l-1 87 -113 3 c-63 2 -115 1 -117 -1z" fill="#fffaf5"/>
<path d="M2125 1962 c-20 -3 -20 -9 -17 -292 2 -194 -1 -296 -8 -310 -10 -19 -8 -20 87 -20 l98 0 0 309 0 310 -70 3 c-38 2 -79 2 -90 0z" fill="#fffaf5"/>
<path d="M2465 1955 c-45 -23 -92 -81 -117 -144 -29 -74 -32 -231 -5 -306 44 -127 166 -198 285 -166 79 22 151 110 152 188 0 45 -15 49 -42 12 -62 -84 -170 -79 -252 11 -61 68 -94 160 -56 160 6 0 32 -20 58 -44 26 -24 58 -49 71 -56 29 -15 82 -16 110 -1 41 22 71 121 37 121 -8 0 -18 -4 -21 -10 -10 -16 -37 -12 -103 15 -71 29 -118 32 -150 9 -33 -23 -45 -9 -40 47 9 94 45 105 159 49 73 -37 123 -46 156 -29 29 16 73 97 73 135 0 24 -3 26 -27 19 -34 -9 -96 -9 -188 -1 -54 6 -77 4 -100 -9z" fill="#fffaf5"/>
<path d="M2820 1965 c0 0 -1 -141 -3 -313 l-2 -312 92 0 c104 0 113 6 113 75 0 41 -29 75 -113 132 -29 21 -47 40 -47 52 0 22 14 20 60 -8 106 -65 153 -128 148 -199 l-3 -47 88 -3 c87 -3 87 -3 97 24 7 18 7 37 0 59 -20 60 -65 89 -261 169 -70 29 -113 60 -106 79 7 23 27 16 76 -27 55 -49 96 -62 163 -53 54 7 88 33 116 88 30 57 28 163 -4 206 -44 59 -74 68 -252 73 -89 3 -162 5 -162 5z m384 -158 c35 -24 32 -56 -9 -77 -46 -23 -271 -21 -308 3 -36 24 -36 61 1 82 41 23 277 17 316 -8z" fill="#fffaf5"/>
<path d="M1115 1940 c13 -43 -95 -500 -135 -567 l-19 -33 114 0 c110 0 115 1 130 24 14 20 15 34 6 80 -6 31 -15 65 -21 75 -17 34 -11 41 33 41 l44 0 11 -80 c8 -53 8 -89 2 -106 -6 -14 -10 -27 -10 -30 0 -2 56 -4 125 -4 l124 0 -18 33 c-43 73 -147 518 -134 568 5 18 -2 19 -127 19 -127 0 -131 -1 -125 -20z m79 -122 c13 -20 41 -114 60 -200 6 -28 6 -28 -43 -28 -55 0 -62 10 -81 108 -19 105 22 184 64 120z" fill="#fffaf5"/>
</g>
</svg>